<svg aria-hidden="true" style="position:absolute;width:0;height:0" xmlns="http://www.w3.org/2000/svg" overflow="hidden">
  <defs>
    <symbol id="modal-close" viewBox="0 0 32 32">
      <path d="M26.667 7.303l-1.97-1.97-7.808 7.808-7.808-7.808-1.97 1.97 7.808 7.808-7.808 7.808 1.97 1.97 7.808-7.808 7.808 7.808 1.97-1.97-7.808-7.808 7.808-7.808z"></path>
    </symbol>
    <symbol id="icon-github" viewBox="0 0 32 32">
      <path d="M16 0.395c-8.836 0-16 7.163-16 16 0 7.069 4.585 13.067 10.942 15.182 0.8 0.148 1.094-0.347 1.094-0.77 0-0.381-0.015-1.642-0.022-2.979-4.452 0.968-5.391-1.888-5.391-1.888-0.728-1.849-1.776-2.341-1.776-2.341-1.452-0.993 0.11-0.973 0.11-0.973 1.606 0.113 2.452 1.649 2.452 1.649 1.427 2.446 3.743 1.739 4.656 1.33 0.143-1.034 0.558-1.74 1.016-2.14-3.554-0.404-7.29-1.777-7.29-7.907 0-1.747 0.625-3.174 1.649-4.295-0.166-0.403-0.714-2.030 0.155-4.234 0 0 1.344-0.43 4.401 1.64 1.276-0.355 2.645-0.532 4.005-0.539 1.359 0.006 2.729 0.184 4.008 0.539 3.054-2.070 4.395-1.64 4.395-1.64 0.871 2.204 0.323 3.831 0.157 4.234 1.026 1.12 1.647 2.548 1.647 4.295 0 6.145-3.743 7.498-7.306 7.895 0.574 0.497 1.085 1.47 1.085 2.963 0 2.141-0.019 3.864-0.019 4.391 0 0.426 0.288 0.925 1.099 0.768 6.354-2.118 10.933-8.113 10.933-15.18 0-8.837-7.164-16-16-16z"></path>
    <symbol id="icon-mail" viewBox="0 0 32 32">
      <path d="M15.447 7.023c2.445 0 4.744 1.081 6.432 2.773v0.005c0-0.812 0.547-1.424 1.305-1.424h0.193c1.188 0 1.431 1.123 1.431 1.479l0.007 12.633c-0.084 0.828 0.853 1.255 1.372 0.724 2.028-2.085 4.456-10.717-1.261-15.72-5.328-4.663-12.476-3.895-16.279-1.273-4.041 2.788-6.628 8.957-4.115 14.752 2.739 6.32 10.575 8.203 15.232 6.325 2.359-0.953 3.448 2.235 0.999 3.276-3.701 1.579-14.003 1.419-18.813-6.917-3.252-5.628-3.079-15.532 5.544-20.663 6.596-3.924 15.293-2.837 20.536 2.639 5.481 5.725 5.163 16.445-0.185 20.615-2.421 1.893-6.021 0.049-5.997-2.708l-0.025-0.904c-1.687 1.675-3.931 2.651-6.376 2.651-4.833 0-9.084-4.252-9.084-9.083 0-4.879 4.252-9.18 9.085-9.18zM21.528 15.853c-0.183-3.537-2.808-5.665-5.979-5.665h-0.12c-3.66 0-5.691 2.879-5.691 6.147 0 3.663 2.456 5.975 5.675 5.975 3.591 0 5.952-2.631 6.123-5.741z"></path>
    </symbol>
    <symbol id="icon-telegram" viewBox="0 0 32 32">
      <path d="M16 0c-8.838 0-16 7.162-16 16s7.162 16 16 16 16-7.163 16-16-7.163-16-16-16zM23.863 10.969l-2.625 12.369c-0.181 0.881-0.712 1.087-1.45 0.681l-4-2.956-1.919 1.869c-0.225 0.219-0.4 0.4-0.8 0.4-0.519 0-0.431-0.194-0.606-0.688l-1.363-4.475-3.956-1.231c-0.856-0.262-0.862-0.85 0.194-1.269l15.412-5.95c0.7-0.319 1.381 0.169 1.113 1.25z"></path>
    </symbol>
    <symbol id="icon-linkedin" viewBox="0 0 32 32">
      <path d="M29 0h-26c-1.65 0-3 1.35-3 3v26c0 1.65 1.35 3 3 3h26c1.65 0 3-1.35 3-3v-26c0-1.65-1.35-3-3-3zM12 26h-4v-14h4v14zM10 10c-1.106 0-2-0.894-2-2s0.894-2 2-2c1.106 0 2 0.894 2 2s-0.894 2-2 2zM26 26h-4v-8c0-1.106-0.894-2-2-2s-2 0.894-2 2v8h-4v-14h4v2.481c0.825-1.131 2.087-2.481 3.5-2.481 2.488 0 4.5 2.238 4.5 5v9z"></path>
    </symbol>

  </defs>
</svg>