<svg aria-hidden="true" style="width:0;height:0;position:absolute" xmlns="http://www.w3.org/2000/svg" overflow="hidden"><defs><symbol id="modal-close" viewBox="0 0 32 32"><path d="m26.667 7.303-1.97-1.97-7.808 7.808-7.808-7.808-1.97 1.97 7.808 7.808-7.808 7.808 1.97 1.97 7.808-7.808 7.808 7.808 1.97-1.97-7.808-7.808 7.808-7.808z"/></symbol><symbol id="icon-github" viewBox="0 0 32 32"><path d="M16 .395c-8.836 0-16 7.163-16 16 0 7.069 4.585 13.067 10.942 15.182.8.148 1.094-.347 1.094-.77 0-.381-.015-1.642-.022-2.979-4.452.968-5.391-1.888-5.391-1.888-.728-1.849-1.776-2.341-1.776-2.341-1.452-.993.11-.973.11-.973 1.606.113 2.452 1.649 2.452 1.649 1.427 2.446 3.743 1.739 4.656 1.33.143-1.034.558-1.74 1.016-2.14-3.554-.404-7.29-1.777-7.29-7.907 0-1.747.625-3.174 1.649-4.295-.166-.403-.714-2.03.155-4.234 0 0 1.344-.43 4.401 1.64a15.353 15.353 0 0 1 4.005-.539c1.359.006 2.729.184 4.008.539 3.054-2.07 4.395-1.64 4.395-1.64.871 2.204.323 3.831.157 4.234 1.026 1.12 1.647 2.548 1.647 4.295 0 6.145-3.743 7.498-7.306 7.895.574.497 1.085 1.47 1.085 2.963 0 2.141-.019 3.864-.019 4.391 0 .426.288.925 1.099.768C27.421 29.457 32 23.462 32 16.395c0-8.837-7.164-16-16-16z"/><symbol id="icon-mail" viewBox="0 0 32 32"><path d="M15.447 7.023c2.445 0 4.744 1.081 6.432 2.773v.005c0-.812.547-1.424 1.305-1.424h.193c1.188 0 1.431 1.123 1.431 1.479l.007 12.633c-.084.828.853 1.255 1.372.724 2.028-2.085 4.456-10.717-1.261-15.72C19.598 2.83 12.45 3.598 8.647 6.22c-4.041 2.788-6.628 8.957-4.115 14.752 2.739 6.32 10.575 8.203 15.232 6.325 2.359-.953 3.448 2.235.999 3.276-3.701 1.579-14.003 1.419-18.813-6.917-3.252-5.628-3.079-15.532 5.544-20.663C14.09-.931 22.787.156 28.03 5.632c5.481 5.725 5.163 16.445-.185 20.615-2.421 1.893-6.021.049-5.997-2.708l-.025-.904c-1.687 1.675-3.931 2.651-6.376 2.651-4.833 0-9.084-4.252-9.084-9.083 0-4.879 4.252-9.18 9.085-9.18zm6.081 8.83c-.183-3.537-2.808-5.665-5.979-5.665h-.12c-3.66 0-5.691 2.879-5.691 6.147 0 3.663 2.456 5.975 5.675 5.975 3.591 0 5.952-2.631 6.123-5.741z"/></symbol><symbol id="icon-telegram" viewBox="0 0 32 32"><path d="M16 0C7.162 0 0 7.162 0 16s7.162 16 16 16 16-7.163 16-16S24.837 0 16 0zm7.863 10.969-2.625 12.369c-.181.881-.712 1.087-1.45.681l-4-2.956-1.919 1.869c-.225.219-.4.4-.8.4-.519 0-.431-.194-.606-.688L11.1 18.169l-3.956-1.231c-.856-.262-.862-.85.194-1.269l15.412-5.95c.7-.319 1.381.169 1.113 1.25z"/></symbol><symbol id="icon-linkedin" viewBox="0 0 32 32"><path d="M29 0H3C1.35 0 0 1.35 0 3v26c0 1.65 1.35 3 3 3h26c1.65 0 3-1.35 3-3V3c0-1.65-1.35-3-3-3zM12 26H8V12h4v14zm-2-16c-1.106 0-2-.894-2-2s.894-2 2-2c1.106 0 2 .894 2 2s-.894 2-2 2zm16 16h-4v-8c0-1.106-.894-2-2-2s-2 .894-2 2v8h-4V12h4v2.481C18.825 13.35 20.087 12 21.5 12c2.488 0 4.5 2.238 4.5 5v9z"/></symbol></symbol></defs></svg>